<svg width="20" height="20" viewBox="0 0 20 20" fill="none" xmlns="http://www.w3.org/2000/svg">
<g clip-path="url(#clip0_6_72)">
<path fill-rule="evenodd" clip-rule="evenodd" d="M15.0338 12.4L20 17.4375L17.5 20L12.4062 15.03C11.1215 15.8295 9.63816 16.2522 8.125 16.25C3.6375 16.25 0 12.6038 0 8.125C0 3.6375 3.64625 0 8.125 0C12.6125 0 16.25 3.64625 16.25 8.125C16.2523 9.63569 15.8309 11.1167 15.0338 12.4ZM2.49625 8.065C2.49625 11.165 5.01375 13.69 8.12125 13.69C11.2213 13.69 13.7463 11.1713 13.7463 8.065C13.7463 4.965 11.2275 2.44 8.12125 2.44C5.02125 2.44 2.49625 4.9575 2.49625 8.065Z" fill="black"/>
</g>
<defs>
<clipPath id="clip0_6_72">
<rect width="20" height="20" fill="white"/>
</clipPath>
</defs>
</svg>
