<svg width="60" height="60" viewBox="0 0 60 60" fill="none" xmlns="http://www.w3.org/2000/svg">
<path d="M19.375 6.25C19.375 5.21448 18.5356 4.375 17.5 4.375C16.4645 4.375 15.625 5.21448 15.625 6.25V10.1981C12.0267 10.4863 9.66446 11.1934 7.92896 12.9289C6.19346 14.6644 5.48631 17.0267 5.19818 20.625H54.8018C54.5138 17.0267 53.8065 14.6644 52.071 12.9289C50.3355 11.1934 47.9733 10.4863 44.375 10.1981V6.25C44.375 5.21448 43.5355 4.375 42.5 4.375C41.4645 4.375 40.625 5.21448 40.625 6.25V10.0322C38.9618 10 37.0975 10 35 10H25C22.9025 10 21.0382 10 19.375 10.0322V6.25Z" fill="#1173D4"/>
<path fill-rule="evenodd" clip-rule="evenodd" d="M5 30C5 27.9025 5 26.0382 5.03225 24.375H54.9677C55 26.0382 55 27.9025 55 30V35C55 44.428 55 49.1422 52.071 52.071C49.1422 55 44.428 55 35 55H25C15.5719 55 10.8579 55 7.92892 52.071C5 49.1422 5 44.428 5 35V30ZM42.5 35C43.8807 35 45 33.8807 45 32.5C45 31.1192 43.8807 30 42.5 30C41.1192 30 40 31.1192 40 32.5C40 33.8807 41.1192 35 42.5 35ZM42.5 45C43.8807 45 45 43.8807 45 42.5C45 41.1192 43.8807 40 42.5 40C41.1192 40 40 41.1192 40 42.5C40 43.8807 41.1192 45 42.5 45ZM32.5 32.5C32.5 33.8807 31.3807 35 30 35C28.6192 35 27.5 33.8807 27.5 32.5C27.5 31.1192 28.6192 30 30 30C31.3807 30 32.5 31.1192 32.5 32.5ZM32.5 42.5C32.5 43.8807 31.3807 45 30 45C28.6192 45 27.5 43.8807 27.5 42.5C27.5 41.1192 28.6192 40 30 40C31.3807 40 32.5 41.1192 32.5 42.5ZM17.5 35C18.8807 35 20 33.8807 20 32.5C20 31.1192 18.8807 30 17.5 30C16.1193 30 15 31.1192 15 32.5C15 33.8807 16.1193 35 17.5 35ZM17.5 45C18.8807 45 20 43.8807 20 42.5C20 41.1192 18.8807 40 17.5 40C16.1193 40 15 41.1192 15 42.5C15 43.8807 16.1193 45 17.5 45Z" fill="#1173D4"/>
</svg>
