<svg width="60" height="60" viewBox="0 0 60 60" fill="none" xmlns="http://www.w3.org/2000/svg">
<path d="M24.375 9.77875C24.375 6.09875 26.5838 3.75 29.8238 3.75H31.4262C34.6662 3.75 36.875 6.09875 36.875 9.77875V13.75H40.625V9.77875C40.6758 7.2694 39.7411 4.84006 38.0214 3.01193C36.3017 1.1838 33.934 0.10251 31.4262 0H29.8238C27.316 0.10251 24.9483 1.1838 23.2286 3.01193C21.5089 4.84006 20.5742 7.2694 20.625 9.77875V13.75H24.375V9.77875Z" fill="#1173D4"/>
<path d="M40.625 13.75V18.75H36.875V13.75H24.375V18.75H20.625V13.75H6.87503V60H53.125V13.75H40.625Z" fill="#1173D4"/>
</svg>
