<?xml version="1.0" encoding="UTF-8" standalone="no"?>
<!-- Uploaded to: SVG Repo, www.svgrepo.com, Generator: SVG Repo Mixer Tools -->
<svg width="800px" height="800px" viewBox="0 0 60 60" version="1.1" xmlns="http://www.w3.org/2000/svg" xmlns:xlink="http://www.w3.org/1999/xlink">
    
    <title>field-tenis</title>
    <desc>Created with Sketch.</desc>
    <defs>

</defs>
    <g id="People" stroke="none" stroke-width="1" fill="none" fill-rule="evenodd">
        <g id="Icon-45" fill="#FFFF">
            <path d="M20,12 C20,14.671 21.04,17.183 22.93,19.071 C24.818,20.96 27.329,22 30,22 C30.885,22 31.749,21.875 32.582,21.654 L30,19.07 C28.051,17.122 28.051,13.95 30,12 C30.944,11.056 32.2,10.535 33.535,10.535 C34.871,10.535 36.127,11.056 37.07,12 L39.653,14.583 C39.875,13.75 40,12.886 40,12 C40,9.329 38.961,6.817 37.072,4.929 C35.183,3.04 32.672,2 30,2 C29.102,2 28.225,2.127 27.38,2.355 C29.098,4.317 29.042,7.302 27.172,9.172 C26.197,10.146 24.916,10.634 23.636,10.634 C22.46,10.634 21.295,10.202 20.355,9.38 C20.127,10.225 20,11.102 20,12 L20,12 Z M21.133,7.375 L21.515,7.758 C22.685,8.928 24.588,8.928 25.758,7.758 C26.928,6.588 26.928,4.685 25.758,3.515 L25.375,3.133 C24.485,3.599 23.66,4.198 22.93,4.929 C22.198,5.659 21.599,6.485 21.133,7.375 L21.133,7.375 Z M38.867,16.625 L35.656,13.414 C34.524,12.282 32.55,12.28 31.414,13.414 C30.245,14.584 30.244,16.487 31.414,17.656 L34.624,20.867 C35.515,20.402 36.341,19.802 37.071,19.07 C37.802,18.34 38.401,17.515 38.867,16.625 L38.867,16.625 Z M21.516,20.485 C19.249,18.219 18,15.205 18,12 C18,8.795 19.249,5.781 21.516,3.515 C23.781,1.248 26.795,0 30,0 C33.205,0 36.22,1.248 38.486,3.515 C42.055,7.084 42.893,12.354 41.018,16.732 C41,16.786 40.974,16.835 40.946,16.886 C40.366,18.19 39.554,19.416 38.485,20.484 C36.219,22.751 33.205,24 30,24 C26.794,24 23.781,22.752 21.516,20.485 L21.516,20.485 Z M31,52 L44,52 L44,39 L31,39 L31,52 Z M16,52 L29,52 L29,39 L16,39 L16,52 Z M46,21 L46,22 L55,22 C55.553,22 56,22.447 56,23 C56,23.553 55.553,24 55,24 L46,24 L46,52 L55,52 C55.553,52 56,52.447 56,53 C56,53.553 55.553,54 55,54 L46,54 L46,55 C46,55.553 45.553,56 45,56 C44.447,56 44,55.553 44,55 L44,54 L31,54 L31,55 C31,55.553 30.553,56 30,56 C29.447,56 29,55.553 29,55 L29,54 L16,54 L16,55 C16,55.553 15.553,56 15,56 C14.447,56 14,55.553 14,55 L14,54 L5,54 C4.447,54 4,53.553 4,53 C4,52.447 4.447,52 5,52 L14,52 L14,24 L5,24 C4.447,24 4,23.553 4,23 C4,22.447 4.447,22 5,22 L14,22 L14,21 C14,20.447 14.447,20 15,20 C15.553,20 16,20.447 16,21 L16,22 L19,22 C19.553,22 20,22.447 20,23 C20,23.553 19.553,24 19,24 L16,24 L16,37 L29,37 L29,27 C29,26.447 29.447,26 30,26 C30.553,26 31,26.447 31,27 L31,37 L44,37 L44,24 L41,24 C40.447,24 40,23.553 40,23 C40,22.447 40.447,22 41,22 L44,22 L44,21 C44,20.447 44.447,20 45,20 C45.553,20 46,20.447 46,21 L46,21 Z M60,21 L60,55 C60,57.757 57.757,60 55,60 L5,60 C2.243,60 0,57.757 0,55 L0,21 C0,18.243 2.243,16 5,16 L16,16 C16.553,16 17,16.447 17,17 C17,17.553 16.553,18 16,18 L5,18 C3.346,18 2,19.346 2,21 L2,55 C2,56.654 3.346,58 5,58 L55,58 C56.654,58 58,56.654 58,55 L58,21 C58,19.346 56.654,18 55,18 L44,18 C43.447,18 43,17.553 43,17 C43,16.447 43.447,16 44,16 L55,16 C57.757,16 60,18.243 60,21 L60,21 Z" id="field-tenis">

</path>
        </g>
    </g>
</svg>